<?xml version="1.0" encoding="utf-8"?>
<!-- Generator: Adobe Illustrator 17.1.0, SVG Export Plug-In . SVG Version: 6.00 Build 0)  -->
<!DOCTYPE svg PUBLIC "-//W3C//DTD SVG 1.1//EN" "http://www.w3.org/Graphics/SVG/1.1/DTD/svg11.dtd">
<svg version="1.1" id="Layer_1" xmlns="http://www.w3.org/2000/svg" xmlns:xlink="http://www.w3.org/1999/xlink" x="0px" y="0px"
	 viewBox="0 0 541.3 701" enable-background="new 0 0 541.3 701" xml:space="preserve">
<g>
	
		<linearGradient id="SVGID_1_" gradientUnits="userSpaceOnUse" x1="-827.6421" y1="731.2302" x2="-827.6421" y2="778.9923" gradientTransform="matrix(7.5597 0 0 -7.5597 6425.3257 5888.9648)">
		<stop  offset="0" style="stop-color:#2D8EB7"/>
		<stop  offset="1" style="stop-color:#4EBEB9"/>
	</linearGradient>
	<path fill="url(#SVGID_1_)" d="M303.1,94.5L303.1,94.5c-1.5-0.8-3-1.5-5.3-2.3c0,0,0,0-0.8,0c-1.5-0.8-3-1.5-5.3-2.3l0,0
		c-1.5-0.8-3.8-1.5-5.3-1.5c0,0,0,0-0.8,0c-1.5-0.8-3.8-0.8-5.3-1.5h-0.8c-1.5,0-3.8-0.8-5.3-0.8h-0.8c-1.5,0-3.8,0-5.3,0l0,0l0,0
		l0,0c-37.8,0-68.8,31-68.8,68.8v0.8l0,0v0.8c0,17.4-14.4,31.8-31.8,31.8s-31.8-14.4-31.8-31.8v-23.4l0,0V68.8
		C136.1,31,105.1,0,67.3,0l0,0C29.5,0-1.5,31-1.5,68.8v291.8h37V68.8C35.5,51.4,49.9,37,67.3,37S99,51.4,99,68.8v49.9l0,0V155
		c0,37.8,31,68.8,68.8,68.8l0,0c37.8,0,68.8-31,68.8-68.8l0,0l0,0v-1.5c0-17.4,14.4-31.8,31.8-31.8c1.5,0,3,0,3.8,0h0.8
		c0.8,0,2.3,0.8,3,0.8h0.8c1.5,0,2.3,0.8,3.8,1.5h0.8c0.8,0.8,2.3,0.8,3,1.5c0,0,0.8,0,0.8,0.8c0.8,0.8,2.3,1.5,3,2.3l0,0
		c0.8,0.8,2.3,1.5,3,3c0,0,0,0,0.8,0.8c0.8,0.8,1.5,1.5,2.3,2.3c0,0,0,0,0.8,0.8c0.8,0.8,1.5,2.3,2.3,3.8c2.3,4.5,3.8,9.8,3.8,15.1
		v27.2l0,0v148.2h37.8v-86.2v-62v-27.2C338.7,128.5,324.3,105.8,303.1,94.5z"/>
	
		<linearGradient id="SVGID_2_" gradientUnits="userSpaceOnUse" x1="-814.1421" y1="703.3717" x2="-814.1421" y2="760.4945" gradientTransform="matrix(7.5597 0 0 -7.5597 6425.3257 5888.9648)">
		<stop  offset="0" style="stop-color:#E93E34"/>
		<stop  offset="1" style="stop-color:#F78E23"/>
	</linearGradient>
	<path fill="url(#SVGID_2_)" d="M471,139.9L471,139.9c-37.8,0-68.8,31-68.8,68.8v147.4l0,0v72.6c0,17.4-14.4,31.8-31.8,31.8
		s-31.8-13.6-31.8-31v-29.5l0,0v-78.6c0-37.8-31-68.8-68.8-68.8l0,0c-37.8,0-68.8,31-68.8,68.8v6.8l0,0v57.5
		c0,17.4-14.4,31.8-31.8,31.8s-31.8-14.4-31.8-31.8v-28l0,0v-80.1c0-37.8-31-68.8-68.8-68.8l0,0C31,208.6,0,239.6,0,277.4V446l0,0
		V502c0,37.8,31,68.8,68.8,68.8l0,0h403.7l0,0c37.8,0,68.8-31,68.8-68.8V208.6C540.5,170.8,509.5,139.9,471,139.9z M501.2,502.7
		c0,17.4-12.1,31.8-29.5,31.8l0,0H67.3l0,0c-17.4,0-31.8-14.4-31.8-31.8V334.1l0,0v-56.7c0-17.4,14.4-31.8,31.8-31.8
		S99,260.1,99,277.4v50.7l0,0v57.5c0,37.8,31,68.8,68.8,68.8l0,0c37.8,0,68.8-31,68.8-68.8v-18.1l0,0v-46.1
		c0-17.4,14.4-31.8,31.8-31.8s31.8,14.4,31.8,31.8v34l0,0v73.3c0,37.8,31,68.8,68.8,68.8l0,0c37.8,0,68.8-31,68.8-68.8V260.1l0,0
		v-51.4c0-17.4,14.4-31.8,31.8-31.8c17.4,0,31.8,14.4,31.8,31.8V502.7L501.2,502.7z"/>
</g>
<g>
	<path fill="#FFFFFF" d="M125.2,659.9c1.5,0,3,0.6,4,1.7s1.7,2.3,1.7,4c0,1.5-0.6,3-1.7,4s-2.5,1.7-4,1.7H96.3c-0.2,0-0.2,0-0.4,0
		c-1.5,0-3-0.6-4-1.7c-1.1-1.1-1.7-2.5-1.7-4v-55.1c0-1.5,0.6-3,1.7-4c1.1-1.1,2.5-1.7,4-1.7h29.4c1.5,0,3,0.6,4,1.7s1.7,2.5,1.7,4
		s-0.6,3-1.7,4s-2.5,1.7-4,1.7h-23.7v25.1h18c1.5,0,3,0.6,4,1.7c1.1,1.1,1.7,2.5,1.7,4c0,1.5-0.6,3-1.7,4c-1.1,1.1-2.5,1.7-4,1.7
		h-18v7.6h23.7V659.9z"/>
	<path fill="#FFFFFF" d="M143.8,671.3c-1.5,0-3-0.6-4-1.7s-1.7-2.5-1.7-4v-55.3c0-1.5,0.6-3,1.7-4s2.5-1.7,4-1.7h13.5
		c6.5,0,12.2,2.3,16.9,7s7,10.3,7,16.9c0,5.9-1.9,11.2-5.9,15.6c4,3,5.9,7,5.9,12c0,4.2-1.5,7.8-4.4,10.8c-3,3-6.5,4.4-10.8,4.4
		H143.8L143.8,671.3z M149.5,640.9h8c3.4,0,6.3-1.3,8.9-3.6c2.5-2.5,3.6-5.3,3.6-8.9c0-3.4-1.3-6.3-3.6-8.9
		c-2.5-2.5-5.5-3.6-8.9-3.6h-8V640.9z M149.5,659.9h16.7c1.1,0,1.9-0.4,2.7-1.1c0.6-0.8,1.1-1.7,1.1-2.7s-0.4-1.9-1.1-2.7
		c-0.8-0.8-1.7-1.1-2.7-1.1h-16.7V659.9z"/>
	<path fill="#FFFFFF" d="M209.5,671.3c-7,0-12.7-2.3-16.9-7c-4.4-4.6-6.5-10.8-6.5-18.2v-16.3c0-7.4,2.1-13.3,6.5-18.2
		c4.4-4.6,9.9-7,16.9-7h0.2c7,0,12.7,2.3,16.9,7c4.4,4.6,6.5,10.8,6.5,18.2v16.3c0,7.4-2.1,13.5-6.5,18.2
		C222.1,669,216.6,671.3,209.5,671.3L209.5,671.3z M209.5,616c-3.8,0-6.8,1.3-9.1,3.8c-2.1,2.5-3.4,5.9-3.4,10.1v16.3
		c0,4.2,1.1,7.6,3.4,10.1c2.1,2.5,5.3,3.8,9.1,3.8h0.2c3.8,0,6.8-1.3,9.1-3.8c2.1-2.5,3.4-5.9,3.4-10.1v-16.3
		c0-4.2-1.1-7.6-3.4-10.1C216.4,617.2,213.5,616,209.5,616L209.5,616z"/>
	<path fill="#FFFFFF" d="M247.3,671.3c-1.5,0-3-0.6-4-1.7s-1.7-2.3-1.7-4v-55.1c0-1.5,0.6-3,1.7-4s2.3-1.7,4-1.7c1.5,0,3,0.6,4,1.7
		c1.1,1.1,1.7,2.5,1.7,4v49.4h17.5c1.5,0,3,0.6,4,1.7c1.1,1.1,1.7,2.5,1.7,4s-0.6,3-1.7,4c-1.1,1.1-2.5,1.7-4,1.7H247.3z"/>
	<path fill="#FFFFFF" d="M330,663.7c0.6,1.5,0.4,3-0.2,4.2c-0.6,1.5-1.7,2.3-3.2,3c-0.6,0.2-1.3,0.4-1.9,0.4c-1.3,0-2.3-0.4-3.2-1.1
		c-1.1-0.6-1.7-1.5-2.1-2.7l-5.7-15.2h-19l-5.7,15.2c-0.4,1.1-1.1,2.1-2.1,2.7c-1.1,0.6-2.1,1.1-3.2,1.1c-0.6,0-1.3-0.2-1.9-0.4
		c-1.5-0.6-2.5-1.5-3.2-3c-0.6-1.5-0.6-2.7-0.2-4.2l20.5-55.3c0,0,0,0,0-0.2s0.2-0.2,0.2-0.2s0,0,0-0.2s0.2-0.2,0.2-0.2
		s0-0.2,0.2-0.2c0.2,0,0.2-0.2,0.2-0.2s0-0.2,0.2-0.2l0.2-0.2c0,0,0,0,0.2-0.2l0.2-0.2c0,0,0,0,0.2-0.2l0.2-0.2c0,0,0.2,0,0.2-0.2
		l0.2-0.2c0,0,0.2,0,0.2-0.2h0.2c0,0,0.2,0,0.4-0.2c0.2,0,0.2,0,0.2,0s0.2,0,0.4,0h0.2c0,0,0.2,0,0.4,0s0.2,0,0.2,0s0.2,0,0.4,0
		c0.2,0,0.2,0,0.2,0h0.2c0.2,0,0.2,0,0.2,0h0.2c0.2,0,0.2,0,0.2,0h0.2c0.2,0,0.2,0,0.4,0c0,0,0,0,0.2,0c0.2,0,0.2,0,0.4,0l0,0
		c0,0,0,0,0.2,0c0.2,0,0.2,0.2,0.2,0.2s0.2,0,0.2,0.2c0.2,0,0.2,0,0.2,0s0,0,0.2,0.2c0.2,0,0.2,0.2,0.2,0.2s0,0.2,0.2,0.2l0.2,0.2
		l0.2,0.2l0.2,0.2c0,0,0,0,0.2,0.2l0.2,0.2c0,0,0,0,0.2,0.2l0.2,0.2c0,0,0,0.2,0.2,0.2v0.2c0,0,0,0.2,0.2,0.2c0,0.2,0,0.2,0,0.2
		L330,663.7z M309.6,641.1l-5.3-14.6l-5.3,14.4h10.6V641.1z"/>
	<path fill="#FFFFFF" d="M371.6,604.8c1.5,0,3,0.6,4,1.7c1.1,1.1,1.7,2.5,1.7,4s-0.6,3-1.7,4c-1.1,1.1-2.5,1.7-4,1.7h-10.1v49.6
		c0,1.5-0.6,3-1.7,4c-1.1,1.1-2.3,1.7-4,1.7c-1.5,0-3-0.6-4-1.7s-1.7-2.3-1.7-4V616H340c-1.5,0-3-0.6-4-1.7c-1.1-1.1-1.7-2.3-1.7-4
		c0-1.5,0.6-3,1.7-4c1.1-1.1,2.3-1.7,4-1.7h31.7V604.8z"/>
	<path fill="#FFFFFF" d="M403.5,671.3c-7,0-12.7-2.3-16.9-7c-4.4-4.6-6.5-10.8-6.5-18.2v-16.3c0-7.4,2.1-13.3,6.5-18.2
		c4.4-4.6,9.9-7,16.9-7h0.2c7,0,12.7,2.3,16.9,7c4.4,4.6,6.5,10.8,6.5,18.2v16.3c0,7.4-2.1,13.5-6.5,18.2
		C416.2,669,410.5,671.3,403.5,671.3L403.5,671.3z M403.5,616c-3.8,0-6.8,1.3-9.1,3.8c-2.1,2.5-3.4,5.9-3.4,10.1v16.3
		c0,4.2,1.1,7.6,3.4,10.1c2.1,2.5,5.3,3.8,9.1,3.8h0.2c3.8,0,6.8-1.3,9.1-3.8c2.1-2.5,3.4-5.9,3.4-10.1v-16.3
		c0-4.2-1.1-7.6-3.4-10.1C410.5,617.2,407.5,616,403.5,616L403.5,616z"/>
	<path fill="#FFFFFF" d="M473.6,662.2c0.8,1.3,1.3,2.5,1.1,4.2c-0.2,1.5-0.8,2.7-2.1,3.8c-1.1,0.8-2.1,1.1-3.4,1.1
		c-1.9,0-3.4-0.8-4.4-2.3l-12.5-16.7h-5.1v13.3c0,1.5-0.6,3-1.7,4c-1.1,1.1-2.5,1.7-4,1.7c-1.5,0-3-0.6-4-1.7
		c-1.1-1.1-1.7-2.3-1.7-4v-55.1c0-1.5,0.6-3,1.7-4c1.1-1.1,2.3-1.7,4-1.7h15.2c6.5,0,12,2.3,16.9,7c4.6,4.6,7,10.3,7,16.9
		c0,5.1-1.5,9.5-4.2,13.5c-2.7,4-6.5,7-11,8.7L473.6,662.2z M447,641.1h9.5c2.3,1.1,5.5-0.5,8.9-3.8c2.5-2.5,3.6-5.5,3.6-8.9
		c0-3.4-1.3-6.3-3.6-8.9c-2.5-2.5-5.5-3.6-8.9-3.6H447V641.1z"/>
	<path fill="#FFFFFF" d="M521.8,605c1.5,0.6,2.5,1.7,3.2,3c0.6,1.5,0.6,3,0,4.2l-14.4,35.3v17.7c0,1.5-0.6,3-1.7,4
		c-1.1,1.1-2.5,1.7-4,1.7c-1.5,0-3-0.6-4-1.7s-1.7-2.5-1.7-4v-17.7l-14.4-35.3c-0.6-1.5-0.6-3,0-4.2c0.6-1.5,1.7-2.5,3-3
		c1.5-0.6,3-0.6,4.2,0c1.5,0.6,2.5,1.7,3,3l9.7,23.7l9.7-23.7c0.6-1.5,1.5-2.5,3-3S520.3,604.6,521.8,605z"/>
	<path fill="#FFFFFF" d="M83.2,608.1c-0.6-1.5-1.7-2.3-3.2-2.7c-1.5-0.4-3-0.4-4.2,0.2c-1.5,0.6-2.3,1.7-2.7,3.2l-12.9,38.9l-5.1-15
		l0,0c-0.2-0.8-0.6-1.5-1.3-2.1c-1.1-1.1-2.5-1.7-4-1.7c-1.5,0-3,0.6-4,1.7c-0.6,0.6-1.1,1.3-1.3,2.1l0,0l-5.1,15l-12.9-38.9
		c-0.4-1.5-1.5-2.5-2.7-3.2c-1.3-0.6-2.7-0.8-4.2-0.2c-1.5,0.4-2.5,1.5-3.2,2.7c-0.6,1.3-0.8,2.7-0.2,4.2L34,667.3
		c0.4,1.3,1.1,2.1,2.1,2.7c1.1,0.6,2.1,1.1,3.4,1.1s2.3-0.4,3.2-1.1c1.1-0.6,1.7-1.7,2.1-2.7l4.9-15l4.9,15c0.4,1.3,1.1,2.1,2.1,2.7
		c1.1,0.6,2.1,1.1,3.2,1.1c1.1,0,2.3-0.4,3.4-1.1c1.1-0.6,1.7-1.7,2.1-2.7l18.2-55.1C83.8,610.9,83.8,609.4,83.2,608.1z"/>
</g>
<g>
</g>
<g>
</g>
<g>
</g>
<g>
</g>
<g>
</g>
<g>
</g>
</svg>
