<?xml version="1.0" encoding="utf-8"?>
<!-- Generator: Adobe Illustrator 17.1.0, SVG Export Plug-In . SVG Version: 6.00 Build 0)  -->
<!DOCTYPE svg PUBLIC "-//W3C//DTD SVG 1.1//EN" "http://www.w3.org/Graphics/SVG/1.1/DTD/svg11.dtd">
<svg version="1.1" id="Layer_1" xmlns="http://www.w3.org/2000/svg" xmlns:xlink="http://www.w3.org/1999/xlink" x="0px" y="0px"
	 viewBox="0 0 2500 1000" enable-background="new 0 0 2500 1000" xml:space="preserve">
<g>
	<g>
		<path fill="#FFFEFE" d="M1067.4,533.6c5.3,0,10.6,2.3,14.4,6c3.8,3.8,6,8.3,6,14.4c0,5.3-2.3,10.6-6,14.4c-3.8,3.8-9.1,6-14.4,6
			H963.9c-0.8,0-0.8,0-1.5,0c-5.3,0-10.6-2.3-14.4-6c-3.8-3.8-6-9.1-6-14.4V356.7c0-5.3,2.3-10.6,6-14.4c3.8-3.8,9.1-6,14.4-6h105.1
			c5.3,0,10.6,2.3,14.4,6c3.8,3.8,6,9.1,6,14.4s-2.3,10.6-6,14.4c-3.8,3.8-9.1,6-14.4,6h-84.7v90h64.3c5.3,0,10.6,2.3,14.4,6
			c3.8,3.8,6,9.1,6,14.4s-2.3,10.6-6,14.4c-3.8,3.8-9.1,6-14.4,6h-64.3v27.2h84.7V533.6z"/>
		<path fill="#FFFEFE" d="M1134,574.5c-5.3,0-10.6-2.3-14.4-6c-3.8-3.8-6-9.1-6-14.4V356c0-5.3,2.3-10.6,6-14.4
			c3.8-3.8,9.1-6,14.4-6h48.4c23.4,0,43.8,8.3,60.5,24.9c16.6,16.6,24.9,37,24.9,60.5c0,21.2-6.8,40.1-21.2,55.9
			c14.4,10.6,21.2,24.9,21.2,43.1c0,15.1-5.3,28-15.9,38.6c-10.6,10.6-23.4,15.9-38.6,15.9H1134L1134,574.5z M1154.4,465.6h28.7
			c12.1,0,22.7-4.5,31.8-12.9c9.1-9.1,12.9-18.9,12.9-31.8c0-12.1-4.5-22.7-12.9-31.8c-9.1-9.1-19.7-12.9-31.8-12.9h-28.7V465.6z
			 M1154.4,533.6h59.7c3.8,0,6.8-1.5,9.8-3.8c2.3-3,3.8-6,3.8-9.8s-1.5-6.8-3.8-9.8c-3-3-6-3.8-9.8-3.8h-59.7V533.6z"/>
		<path fill="#FFFEFE" d="M1369.1,574.5c-24.9,0-45.4-8.3-60.5-24.9c-15.9-16.6-23.4-38.6-23.4-65v-58.2c0-26.5,7.6-47.6,23.4-65
			c15.9-16.6,35.5-24.9,60.5-24.9h0.8c24.9,0,45.4,8.3,60.5,24.9c15.9,16.6,23.4,38.6,23.4,65v58.2c0,26.5-7.6,48.4-23.4,65
			C1414.4,566.1,1394.8,574.5,1369.1,574.5L1369.1,574.5z M1369.1,376.4c-13.6,0-24.2,4.5-32.5,13.6c-7.6,9.1-12.1,21.2-12.1,36.3
			v58.2c0,15.1,3.8,27.2,12.1,36.3c7.6,9.1,18.9,13.6,32.5,13.6h0.8c13.6,0,24.2-4.5,32.5-13.6c7.6-9.1,12.1-21.2,12.1-36.3v-58.2
			c0-15.1-3.8-27.2-12.1-36.3C1394,380.9,1383.4,376.4,1369.1,376.4L1369.1,376.4z"/>
		<path fill="#FFFEFE" d="M1504.4,574.5c-5.3,0-10.6-2.3-14.4-6c-3.8-3.8-6-8.3-6-14.4V356.7c0-5.3,2.3-10.6,6-14.4
			c3.8-3.8,8.3-6,14.4-6c5.3,0,10.6,2.3,14.4,6c3.8,3.8,6,9.1,6,14.4v176.9h62.7c5.3,0,10.6,2.3,14.4,6c3.8,3.8,6,9.1,6,14.4
			s-2.3,10.6-6,14.4c-3.8,3.8-9.1,6-14.4,6H1504.4z"/>
		<path fill="#FFFEFE" d="M1800.7,547.2c2.3,5.3,1.5,10.6-0.8,15.1c-2.3,5.3-6,8.3-11.3,10.6c-2.3,0.8-4.5,1.5-6.8,1.5
			c-4.5,0-8.3-1.5-11.3-3.8c-3.8-2.3-6-5.3-7.6-9.8l-20.4-54.4h-68l-20.4,54.4c-1.5,3.8-3.8,7.6-7.6,9.8c-3.8,2.3-7.6,3.8-11.3,3.8
			c-2.3,0-4.5-0.8-6.8-1.5c-5.3-2.3-9.1-5.3-11.3-10.6s-2.3-9.8-0.8-15.1l73.3-198.1c0,0,0,0,0-0.8c0-0.8,0.8-0.8,0.8-0.8s0,0,0-0.8
			s0.8-0.8,0.8-0.8s0-0.8,0.8-0.8c0.8,0,0.8-0.8,0.8-0.8s0-0.8,0.8-0.8l0.8-0.8c0,0,0,0,0.8-0.8l0.8-0.8c0,0,0,0,0.8-0.8l0.8-0.8
			c0,0,0.8,0,0.8-0.8l0.8-0.8c0,0,0.8,0,0.8-0.8h0.8c0,0,0.8,0,1.5-0.8c0.8,0,0.8,0,0.8,0s0.8,0,1.5,0h0.8c0,0,0.8,0,1.5,0
			s0.8,0,0.8,0s0.8,0,1.5,0s0.8,0,0.8,0h0.8c0.8,0,0.8,0,0.8,0h0.8c0.8,0,0.8,0,0.8,0h0.8c0.8,0,0.8,0,1.5,0c0,0,0,0,0.8,0
			c0.8,0,0.8,0,1.5,0l0,0c0,0,0,0,0.8,0c0.8,0,0.8,0.8,0.8,0.8s0.8,0,0.8,0.8c0.8,0,0.8,0,0.8,0s0,0,0.8,0.8c0.8,0,0.8,0.8,0.8,0.8
			s0,0.8,0.8,0.8l0.8,0.8l0.8,0.8l0.8,0.8c0,0,0,0,0.8,0.8l0.8,0.8c0,0,0,0,0.8,0.8l0.8,0.8c0,0,0,0.8,0.8,0.8v0.8
			c0,0,0,0.8,0.8,0.8c0,0.8,0,0.8,0,0.8L1800.7,547.2z M1727.4,466.4l-18.9-52.2l-18.9,51.4h37.8V466.4z"/>
		<path fill="#FFFEFE" d="M1949.7,336.3c5.3,0,10.6,2.3,14.4,6c3.8,3.8,6,9.1,6,14.4s-2.3,10.6-6,14.4c-3.8,3.8-9.1,6-14.4,6h-36.3
			v177.7c0,5.3-2.3,10.6-6,14.4s-8.3,6-14.4,6c-5.3,0-10.6-2.3-14.4-6c-3.8-3.8-6-8.3-6-14.4V376.4h-36.3c-5.3,0-10.6-2.3-14.4-6
			c-3.8-3.8-6-8.3-6-14.4c0-5.3,2.3-10.6,6-14.4c3.8-3.8,8.3-6,14.4-6h113.4V336.3z"/>
		<path fill="#FFFEFE" d="M2063.8,574.5c-24.9,0-45.4-8.3-60.5-24.9c-15.9-16.6-23.4-38.6-23.4-65v-58.2c0-26.5,7.6-47.6,23.4-65
			c15.9-16.6,35.5-24.9,60.5-24.9h0.8c24.9,0,45.4,8.3,60.5,24.9c15.9,16.6,23.4,38.6,23.4,65v58.2c0,26.5-7.6,48.4-23.4,65
			C2109.2,566.1,2088.8,574.5,2063.8,574.5L2063.8,574.5z M2063.8,376.4c-13.6,0-24.2,4.5-32.5,13.6c-7.6,9.1-12.1,21.2-12.1,36.3
			v58.2c0,15.1,3.8,27.2,12.1,36.3c7.6,9.1,18.9,13.6,32.5,13.6h0.8c13.6,0,24.2-4.5,32.5-13.6c7.6-9.1,12.1-21.2,12.1-36.3v-58.2
			c0-15.1-3.8-27.2-12.1-36.3S2078.2,376.4,2063.8,376.4L2063.8,376.4z"/>
		<path fill="#FFFEFE" d="M2314.8,542c3,4.5,4.5,9.1,3.8,15.1c-0.8,5.3-3,9.8-7.6,13.6c-3.8,3-7.6,3.8-12.1,3.8
			c-6.8,0-12.1-3-15.9-8.3l-44.6-59.7h-18.1v47.6c0,5.3-2.3,10.6-6,14.4c-3.8,3.8-9.1,6-14.4,6s-10.6-2.3-14.4-6
			c-3.8-3.8-6-8.3-6-14.4V356.7c0-5.3,2.3-10.6,6-14.4c3.8-3.8,8.3-6,14.4-6h54.4c23.4,0,43.1,8.3,60.5,24.9
			c16.6,16.6,24.9,37,24.9,60.5c0,18.1-5.3,34-15.1,48.4c-9.8,14.4-23.4,24.9-39.3,31L2314.8,542z M2219.5,466.4h34
			c12.1,0,22.7-4.5,31.8-13.6c9.1-9.1,12.9-19.7,12.9-31.8s-4.5-22.7-12.9-31.8c-9.1-9.1-19.7-12.9-31.8-12.9h-34V466.4z"/>
		<path fill="#FFFEFE" d="M2487.1,337.1c5.3,2.3,9.1,6,11.3,10.6c2.3,5.3,2.3,10.6,0,15.1L2447.1,489v63.5c0,5.3-2.3,10.6-6,14.4
			c-3.8,3.8-9.1,6-14.4,6c-5.3,0-10.6-2.3-14.4-6s-6-9.1-6-14.4V489l-51.4-126.2c-2.3-5.3-2.3-10.6,0-15.1c2.3-5.3,6-9.1,10.6-10.6
			c5.3-2.3,10.6-2.3,15.1,0c5.3,2.3,9.1,6,10.6,10.6l34.8,84.7l34.8-84.7c2.3-5.3,5.3-9.1,10.6-10.6
			C2476.6,335.6,2481.9,335.6,2487.1,337.1z"/>
		<path fill="#FFFEFE" d="M917,348.4c-2.3-5.3-6-8.3-11.3-9.8c-5.3-1.5-10.6-1.5-15.1,0.8c-5.3,2.3-8.3,6-9.8,11.3l-46.1,139.1
			l-18.1-53.7l0,0c-0.8-3-2.3-5.3-4.5-7.6c-3.8-3.8-9.1-6-14.4-6c-5.3,0-10.6,2.3-14.4,6c-2.3,2.3-3.8,4.5-4.5,7.6l0,0l-18.1,53.7
			l-46.1-139.1c-1.5-5.3-5.3-9.1-9.8-11.3s-9.8-3-15.1-0.8c-5.3,1.5-9.1,5.3-11.3,9.8s-3,9.8-0.8,15.1l63.5,196.6
			c1.5,4.5,3.8,7.6,7.6,9.8c3.8,2.3,7.6,3.8,12.1,3.8c4.5,0,8.3-1.5,11.3-3.8c3.8-2.3,6-6,7.6-9.8l17.4-53.7l17.4,53.7
			c1.5,4.5,3.8,7.6,7.6,9.8c3.8,2.3,7.6,3.8,11.3,3.8c3.8,0,8.3-1.5,12.1-3.8c3.8-2.3,6-6,7.6-9.8l65-197.3
			C919.3,358.3,919.3,353,917,348.4z"/>
	</g>
	<g enable-background="new    ">
		<path fill="#FFFEFE" d="M691.1,672.7c6.2-1,14.2-1.9,24.5-1.9c12.6,0,21.9,2.9,27.7,8.2c5.4,4.7,8.7,11.9,8.7,20.7
			c0,9-2.6,16-7.6,21.1c-6.8,7.2-17.8,10.9-30.2,10.9c-3.8,0-7.3-0.1-10.3-0.9v39.6h-12.8V672.7z M703.9,720.5c2.8,0.7,6.3,1,10.6,1
			c15.4,0,24.8-7.5,24.8-21.1c0-13.1-9.2-19.4-23.3-19.4c-5.6,0-9.8,0.4-12,1V720.5z"/>
		<path fill="#FFFEFE" d="M805.8,666.3h12.9v104.2h-12.9V666.3z"/>
		<path fill="#FFFEFE" d="M937.6,751.1c0,7.3,0.1,13.8,0.6,19.4h-11.5l-0.7-11.6h-0.3c-3.4,5.7-10.9,13.2-23.5,13.2
			c-11.2,0-24.5-6.2-24.5-31.1v-41.5h12.9v39.3c0,13.5,4.1,22.6,15.9,22.6c8.7,0,14.7-6,17-11.7c0.7-1.9,1.2-4.3,1.2-6.6v-43.6h12.9
			V751.1z"/>
		<path fill="#FFFEFE" d="M1058,699.5c-0.3,5.1-0.6,10.9-0.6,19.5v41.3c0,16.3-3.2,26.3-10.1,32.4c-6.9,6.5-16.9,8.5-25.8,8.5
			c-8.5,0-17.9-2.1-23.6-5.9l3.2-9.8c4.7,2.9,12,5.6,20.8,5.6c13.2,0,22.9-6.9,22.9-24.8v-7.9h-0.3c-4,6.6-11.6,11.9-22.6,11.9
			c-17.6,0-30.2-15-30.2-34.6c0-24.1,15.7-37.7,32-37.7c12.3,0,19.1,6.5,22.2,12.3h0.3l0.6-10.7H1058z M1044.6,727.5
			c0-2.2-0.1-4.1-0.7-5.9c-2.3-7.5-8.7-13.7-18.1-13.7c-12.3,0-21.1,10.4-21.1,26.9c0,13.9,7,25.5,21,25.5c7.9,0,15.1-5,17.9-13.2
			c0.7-2.2,1-4.7,1-6.9V727.5z"/>
		<path fill="#FFFEFE" d="M1130.1,679.5c0.1,4.4-3.1,7.9-8.2,7.9c-4.6,0-7.8-3.5-7.8-7.9c0-4.6,3.4-8.1,8.1-8.1
			C1127,671.4,1130.1,674.9,1130.1,679.5z M1115.7,770.5v-71.1h12.9v71.1H1115.7z"/>
		<path fill="#FFFEFE" d="M1187.8,718.7c0-7.3-0.1-13.4-0.6-19.2h11.5l0.7,11.7h0.3c3.5-6.8,11.7-13.4,23.5-13.4
			c9.8,0,25.1,5.9,25.1,30.2v42.4h-12.9v-41c0-11.5-4.3-21-16.4-21c-8.5,0-15.1,6-17.3,13.2c-0.6,1.6-0.9,3.8-0.9,6v42.7h-12.9
			V718.7z"/>
		<path fill="#FFFEFE" d="M1445.4,767.3c-4.7,2.3-14.1,4.7-26.1,4.7c-27.9,0-48.9-17.6-48.9-50.1c0-31,21-52,51.7-52
			c12.3,0,20.1,2.6,23.5,4.4l-3.1,10.4c-4.8-2.3-11.7-4.1-20-4.1c-23.2,0-38.6,14.8-38.6,40.8c0,24.2,13.9,39.8,38,39.8
			c7.8,0,15.7-1.6,20.8-4.1L1445.4,767.3z"/>
		<path fill="#FFFEFE" d="M1504.3,737.3c0.3,17.5,11.5,24.7,24.4,24.7c9.2,0,14.8-1.6,19.7-3.7l2.2,9.2c-4.6,2.1-12.3,4.4-23.6,4.4
			c-21.9,0-34.9-14.4-34.9-35.8s12.6-38.3,33.3-38.3c23.2,0,29.4,20.4,29.4,33.5c0,2.6-0.3,4.7-0.4,6H1504.3z M1542.2,728.1
			c0.1-8.2-3.4-21-17.9-21c-13.1,0-18.8,12-19.8,21H1542.2z"/>
		<path fill="#FFFEFE" d="M1608.4,718.7c0-7.3-0.1-13.4-0.6-19.2h11.5l0.7,11.7h0.3c3.5-6.8,11.7-13.4,23.5-13.4
			c9.8,0,25.1,5.9,25.1,30.2v42.4h-12.9v-41c0-11.5-4.3-21-16.4-21c-8.5,0-15.1,6-17.3,13.2c-0.6,1.6-0.9,3.8-0.9,6v42.7h-12.9
			V718.7z"/>
		<path fill="#FFFEFE" d="M1742.5,679.1v20.4h18.5v9.8h-18.5v38.3c0,8.8,2.5,13.8,9.7,13.8c3.4,0,5.9-0.4,7.5-0.9l0.6,9.7
			c-2.5,1-6.5,1.8-11.5,1.8c-6,0-10.9-1.9-13.9-5.4c-3.7-3.8-5-10.1-5-18.5v-38.8h-11v-9.8h11v-17L1742.5,679.1z"/>
		<path fill="#FFFEFE" d="M1819.6,737.3c0.3,17.5,11.5,24.7,24.4,24.7c9.2,0,14.8-1.6,19.7-3.7l2.2,9.2c-4.6,2.1-12.3,4.4-23.6,4.4
			c-21.9,0-34.9-14.4-34.9-35.8s12.6-38.3,33.3-38.3c23.2,0,29.4,20.4,29.4,33.5c0,2.6-0.3,4.7-0.4,6H1819.6z M1857.5,728.1
			c0.1-8.2-3.4-21-17.9-21c-13.1,0-18.8,12-19.8,21H1857.5z"/>
		<path fill="#FFFEFE" d="M1923.7,721.6c0-8.4-0.1-15.6-0.6-22.2h11.3l0.4,13.9h0.6c3.2-9.5,11-15.6,19.7-15.6
			c1.5,0,2.5,0.1,3.7,0.4v12.2c-1.3-0.3-2.6-0.4-4.4-0.4c-9.1,0-15.6,6.9-17.3,16.6c-0.3,1.8-0.6,3.8-0.6,6v37.9h-12.8V721.6z"/>
	</g>
	<g>
		
			<linearGradient id="SVGID_1_" gradientUnits="userSpaceOnUse" x1="22.5" y1="952.2379" x2="22.5" y2="1000" gradientTransform="matrix(7.5597 0 0 -7.5597 0 7754.6865)">
			<stop  offset="0" style="stop-color:#2D8DB6"/>
			<stop  offset="1" style="stop-color:#4CBEB9"/>
		</linearGradient>
		<path fill="url(#SVGID_1_)" d="M304.7,289.5L304.7,289.5c-1.5-0.8-3-1.5-5.3-2.3c0,0,0,0-0.8,0c-1.5-0.8-3-1.5-5.3-2.3l0,0
			c-1.5-0.8-3.8-1.5-5.3-1.5c0,0,0,0-0.8,0c-1.5-0.8-3.8-0.8-5.3-1.5h-0.8c-1.5,0-3.8-0.8-5.3-0.8h-0.8c-1.5,0-3.8,0-5.3,0l0,0l0,0
			l0,0c-37.8,0-68.8,31-68.8,68.8v0.8l0,0v0.8c0,17.4-14.4,31.8-31.8,31.8s-31.8-14.4-31.8-31.8V328l0,0v-64.3
			c0-37.8-31-68.8-68.8-68.8l0,0C31,195,0,226,0,263.8v291.8h37V263.8c0-17.4,14.4-31.8,31.8-31.8s31.8,14.4,31.8,31.8v49.9l0,0
			v36.3c0,37.8,31,68.8,68.8,68.8l0,0c37.8,0,68.8-31,68.8-68.8l0,0l0,0v-1.5c0-17.4,14.4-31.8,31.8-31.8c1.5,0,3,0,3.8,0h0.8
			c0.8,0,2.3,0.8,3,0.8h0.8c1.5,0,2.3,0.8,3.8,1.5h0.8c0.8,0.8,2.3,0.8,3,1.5c0,0,0.8,0,0.8,0.8c0.8,0.8,2.3,1.5,3,2.3l0,0
			c0.8,0.8,2.3,1.5,3,3c0,0,0,0,0.8,0.8c0.8,0.8,1.5,1.5,2.3,2.3c0,0,0,0,0.8,0.8c0.8,0.8,1.5,2.3,2.3,3.8c2.3,4.5,3.8,9.8,3.8,15.1
			v27.2l0,0v148.2h37.8v-86.2v-62v-27.2C340.2,323.5,325.8,300.8,304.7,289.5z"/>
		
			<linearGradient id="SVGID_2_" gradientUnits="userSpaceOnUse" x1="36" y1="924.3794" x2="36" y2="981.5022" gradientTransform="matrix(7.5597 0 0 -7.5597 0 7754.6865)">
			<stop  offset="0" style="stop-color:#E93C33"/>
			<stop  offset="1" style="stop-color:#F78D20"/>
		</linearGradient>
		<path fill="url(#SVGID_2_)" d="M472.5,334.8L472.5,334.8c-37.8,0-68.8,31-68.8,68.8V551l0,0v72.6c0,17.4-14.4,31.8-31.8,31.8
			s-31.8-13.6-31.8-31v-29.5l0,0v-78.6c0-37.8-31-68.8-68.8-68.8l0,0c-37.8,0-68.8,31-68.8,68.8v6.8l0,0v57.5
			c0,17.4-14.4,31.8-31.8,31.8s-31.8-14.4-31.8-31.8v-28l0,0v-80.1c0-37.8-31-68.8-68.8-68.8l0,0c-37.8,0-68.8,31-68.8,68.8V641l0,0
			v55.9c0,37.8,31,68.8,68.8,68.8l0,0H474l0,0c37.8,0,68.8-31,68.8-68.8V403.6C542,365.8,511,334.8,472.5,334.8z M505,697.7
			c0,17.4-14.4,31.8-31.8,31.8l0,0H68.8l0,0c-17.4,0-31.8-14.4-31.8-31.8V529.1l0,0v-56.7c0-17.4,14.4-31.8,31.8-31.8
			s31.8,14.4,31.8,31.8v50.7l0,0v57.5c0,37.8,31,68.8,68.8,68.8l0,0c37.8,0,68.8-31,68.8-68.8v-18.1l0,0v-46.1
			c0-17.4,14.4-31.8,31.8-31.8s31.8,14.4,31.8,31.8v34l0,0v73.3c0,37.8,31,68.8,68.8,68.8l0,0c37.8,0,68.8-31,68.8-68.8V455l0,0
			v-51.4c0-17.4,14.4-31.8,31.8-31.8s31.8,14.4,31.8,31.8v294.1H505z"/>
	</g>
</g>
</svg>
